REM DIRINDEX 1\2,1\3,1\4,1\5
REM DIRNAME "folder01","folder02","folder03","folder04","folder05"
TITLE ""
FILE "1Q_t_0959-0968.mp3" MP3
  TRACK 01 AUDIO
    TITLE "3:cjc172_3832"
    INDEX 01 00:00:00
  TRACK 02 AUDIO
    TITLE "0:"
    INDEX 01 00:01:18
  TRACK 03 AUDIO
    TITLE "4:cjc172_3833"
    INDEX 01 00:01:27
  TRACK 04 AUDIO
    TITLE "0:"
    INDEX 01 00:03:26
  TRACK 05 AUDIO
    TITLE "5:cjc172_3834"
    INDEX 01 00:03:32
  TRACK 06 AUDIO
    TITLE "0:"
    INDEX 01 00:07:42
  TRACK 07 AUDIO
    TITLE "3:cjc172_3835"
    INDEX 01 00:08:12
  TRACK 08 AUDIO
    TITLE "0:"
    INDEX 01 00:09:37
  TRACK 09 AUDIO
    TITLE "4:cjc172_3836"
    INDEX 01 00:09:45
  TRACK 10 AUDIO
    TITLE "0:"
    INDEX 01 00:10:54
  TRACK 11 AUDIO
    TITLE "5:cjc172_3837"
    INDEX 01 00:10:62
  TRACK 12 AUDIO
    TITLE "0:"
    INDEX 01 00:14:71
  TRACK 13 AUDIO
    TITLE "3:cjc172_3838"
    INDEX 01 00:15:41
  TRACK 14 AUDIO
    TITLE "0:"
    INDEX 01 00:16:60
  TRACK 15 AUDIO
    TITLE "4:cjc172_3839"
    INDEX 01 00:16:70
  TRACK 16 AUDIO
    TITLE "0:"
    INDEX 01 00:19:68
  TRACK 17 AUDIO
    TITLE "5:cjc172_3840"
    INDEX 01 00:20:01
  TRACK 18 AUDIO
    TITLE "0:"
    INDEX 01 00:23:56
  TRACK 19 AUDIO
    TITLE "3:cjc172_3841"
    INDEX 01 00:24:28
  TRACK 20 AUDIO
    TITLE "0:"
    INDEX 01 00:25:42
  TRACK 21 AUDIO
    TITLE "4:cjc172_3842"
    INDEX 01 00:25:51
  TRACK 22 AUDIO
    TITLE "0:"
    INDEX 01 00:28:07
  TRACK 23 AUDIO
    TITLE "5:cjc172_3843"
    INDEX 01 00:28:13
  TRACK 24 AUDIO
    TITLE "0:"
    INDEX 01 00:33:22
  TRACK 25 AUDIO
    TITLE "3:cjc172_3844"
    INDEX 01 00:33:65
  TRACK 26 AUDIO
    TITLE "0:"
    INDEX 01 00:34:72
  TRACK 27 AUDIO
    TITLE "4:cjc172_3845"
    INDEX 01 00:35:07
  TRACK 28 AUDIO
    TITLE "0:"
    INDEX 01 00:36:20
  TRACK 29 AUDIO
    TITLE "5:cjc172_3846"
    INDEX 01 00:36:28
  TRACK 30 AUDIO
    TITLE "0:"
    INDEX 01 00:41:70
  TRACK 31 AUDIO
    TITLE "3:cjc172_3847"
    INDEX 01 00:42:40
  TRACK 32 AUDIO
    TITLE "0:"
    INDEX 01 00:43:71
  TRACK 33 AUDIO
    TITLE "4:cjc172_3848"
    INDEX 01 00:44:04
  TRACK 34 AUDIO
    TITLE "0:"
    INDEX 01 00:46:06
  TRACK 35 AUDIO
    TITLE "5:cjc172_3849"
    INDEX 01 00:46:10
  TRACK 36 AUDIO
    TITLE "0:"
    INDEX 01 00:51:16
  TRACK 37 AUDIO
    TITLE "3:cjc172_3850"
    INDEX 01 00:51:63
  TRACK 38 AUDIO
    TITLE "0:"
    INDEX 01 00:53:16
  TRACK 39 AUDIO
    TITLE "4:cjc172_3851"
    INDEX 01 00:53:28
  TRACK 40 AUDIO
    TITLE "0:"
    INDEX 01 00:56:01
  TRACK 41 AUDIO
    TITLE "5:cjc172_3852"
    INDEX 01 00:56:07
  TRACK 42 AUDIO
    TITLE "0:"
    INDEX 01 01:00:09
  TRACK 43 AUDIO
    TITLE "3:cjc172_3853"
    INDEX 01 01:00:52
  TRACK 44 AUDIO
    TITLE "0:"
    INDEX 01 01:01:51
  TRACK 45 AUDIO
    TITLE "4:cjc172_3854"
    INDEX 01 01:01:59
  TRACK 46 AUDIO
    TITLE "0:"
    INDEX 01 01:04:34
  TRACK 47 AUDIO
    TITLE "5:cjc172_3855"
    INDEX 01 01:04:44
  TRACK 48 AUDIO
    TITLE "0:"
    INDEX 01 01:08:14
  TRACK 49 AUDIO
    TITLE "3:cjc172_3856"
    INDEX 01 01:08:59
  TRACK 50 AUDIO
    TITLE "0:"
    INDEX 01 01:10:13
  TRACK 51 AUDIO
    TITLE "4:cjc172_3857"
    INDEX 01 01:10:21
  TRACK 52 AUDIO
    TITLE "0:"
    INDEX 01 01:11:67
  TRACK 53 AUDIO
    TITLE "5:cjc172_3858"
    INDEX 01 01:12:02
  TRACK 54 AUDIO
    TITLE "0:"
    INDEX 01 01:17:07
  TRACK 55 AUDIO
    TITLE "3:cjc172_3859"
    INDEX 01 01:17:52
  TRACK 56 AUDIO
    TITLE "0:"
    INDEX 01 01:18:65
  TRACK 57 AUDIO
    TITLE "4:cjc172_3860"
    INDEX 01 01:18:71
  TRACK 58 AUDIO
    TITLE "0:"
    INDEX 01 01:21:32
  TRACK 59 AUDIO
    TITLE "5:cjc172_3861"
    INDEX 01 01:21:38
  TRACK 60 AUDIO
    TITLE "0:"
    INDEX 01 01:25:34
